<?xml version="1.0" encoding="utf-8"?>
<!-- Generator: Adobe Illustrator 17.0.0, SVG Export Plug-In . SVG Version: 6.00 Build 0)  -->
<!DOCTYPE svg PUBLIC "-//W3C//DTD SVG 1.1//EN" "http://www.w3.org/Graphics/SVG/1.1/DTD/svg11.dtd">
<svg version="1.1" xmlns="http://www.w3.org/2000/svg" xmlns:xlink="http://www.w3.org/1999/xlink" x="0px" y="0px" width="639px"
	 height="639.042px" viewBox="0 0 639 639.042" enable-background="new 0 0 639 639.042" xml:space="preserve">
<g id="white_x5F_BW" display="none">
	<g id="XMLID_1_" display="inline">
		<path d="M319.5,0.042c176.449,0,319.5,143.056,319.5,319.511S495.949,639.064,319.5,639.064S0,496.008,0,319.553
			S143.051,0.042,319.5,0.042z M617.7,317.295c0-164.633-133.445-298.083-298.072-298.083
			c-164.606,0-298.072,133.449-298.072,298.083c0,164.612,133.466,298.083,298.072,298.083
			C484.255,615.377,617.7,481.907,617.7,317.295z"/>
	</g>
	
		<circle id="leg_7_" display="inline" fill="#FFFFFF" stroke="#000000" stroke-miterlimit="10" cx="108.763" cy="266.159" r="63.767"/>
	
		<circle id="leg_6_" display="inline" fill="#FFFFFF" stroke="#000000" stroke-miterlimit="10" cx="345.06" cy="517.632" r="66.03"/>
	
		<circle id="leg_5_" display="inline" fill="#FFFFFF" stroke="#000000" stroke-miterlimit="10" cx="561.477" cy="343.105" r="32.083"/>
	
		<circle id="leg_4_" display="inline" fill="#FFFFFF" stroke="#000000" stroke-miterlimit="10" cx="287.284" cy="93.229" r="31.151"/>
	
		<circle id="tail_1_" display="inline" fill="#FFFFFF" stroke="#000000" stroke-miterlimit="10" cx="505.742" cy="168.445" r="43.798"/>
	
		<ellipse id="black" display="inline" stroke="#000000" stroke-width="0.5" stroke-miterlimit="10" cx="333.522" cy="286.172" rx="215.663" ry="194.54"/>
	
		<circle id="head_1_" display="inline" fill="#FFFFFF" stroke="#000000" stroke-miterlimit="10" cx="171.731" cy="382.998" r="114.754"/>
</g>
<g id="black_x5F_BW" display="none">
	<g id="XMLID_6_" display="inline">
		<path fill="#FFFFFF" d="M319.5,0.042c176.449,0,319.5,143.051,319.5,319.5s-143.051,319.5-319.5,319.5S0,495.991,0,319.542
			S143.051,0.042,319.5,0.042z M617.7,317.284c0-164.628-133.445-298.072-298.072-298.072
			c-164.606,0-298.072,133.445-298.072,298.072c0,164.606,133.466,298.072,298.072,298.072
			C484.255,615.356,617.7,481.89,617.7,317.284z"/>
	</g>
	
		<circle id="leg_24_" display="inline" fill="#FFFFFF" stroke="#000000" stroke-miterlimit="10" cx="108.763" cy="266.159" r="63.767"/>
	
		<circle id="leg_23_" display="inline" fill="#FFFFFF" stroke="#000000" stroke-miterlimit="10" cx="345.06" cy="517.632" r="66.03"/>
	
		<circle id="leg_22_" display="inline" fill="#FFFFFF" stroke="#000000" stroke-miterlimit="10" cx="561.477" cy="343.105" r="32.083"/>
	
		<circle id="leg_21_" display="inline" fill="#FFFFFF" stroke="#000000" stroke-miterlimit="10" cx="287.284" cy="93.229" r="31.151"/>
	
		<circle id="tail_6_" display="inline" fill="#FFFFFF" stroke="#000000" stroke-miterlimit="10" cx="505.742" cy="168.445" r="43.798"/>
	
		<ellipse id="black_2_" display="inline" stroke="#FFFFFF" stroke-width="0.5" stroke-miterlimit="10" cx="333.522" cy="286.172" rx="215.663" ry="194.54"/>
	
		<circle id="head_6_" display="inline" fill="#FFFFFF" stroke="#000000" stroke-miterlimit="10" cx="171.731" cy="382.998" r="114.754"/>
</g>
<g id="white_x5F_color">
	<g id="XMLID_4_">
		<path d="M319.5,0.042c176.449,0,319.5,143.051,319.5,319.5s-143.051,319.5-319.5,319.5S0,495.991,0,319.542
			S143.051,0.042,319.5,0.042z M617.7,317.284c0-164.628-133.445-298.072-298.072-298.072
			c-164.606,0-298.072,133.445-298.072,298.072c0,164.606,133.466,298.072,298.072,298.072
			C484.255,615.356,617.7,481.89,617.7,317.284z"/>
	</g>
	<circle id="leg_16_" fill="#FFFFFF" stroke="#000000" stroke-miterlimit="10" cx="108.763" cy="266.159" r="63.767"/>
	<circle id="leg_3_" fill="#FFFFFF" stroke="#000000" stroke-miterlimit="10" cx="345.06" cy="517.632" r="66.03"/>
	<circle id="leg_2_" fill="#FFFFFF" stroke="#000000" stroke-miterlimit="10" cx="561.477" cy="343.105" r="32.083"/>
	<circle id="leg_1_" fill="#FFFFFF" stroke="#000000" stroke-miterlimit="10" cx="287.284" cy="93.229" r="31.151"/>
	<circle id="tail_4_" fill="#FFFFFF" stroke="#000000" stroke-miterlimit="10" cx="505.742" cy="168.445" r="43.798"/>
	
		<ellipse id="green_1_" fill="#A0BF3D" stroke="#000000" stroke-width="0.5" stroke-miterlimit="10" cx="333.522" cy="286.172" rx="215.663" ry="194.54"/>
	<circle id="head_4_" fill="#FFFFFF" stroke="#000000" stroke-miterlimit="10" cx="171.731" cy="382.998" r="114.754"/>
</g>
<g id="black_x5F_color" display="none">
	<g id="XMLID_3_" display="inline">
		<path fill="#FFFFFF" d="M319.5,0.042c176.449,0,319.5,143.011,319.5,319.411S495.949,638.864,319.5,638.864S0,495.853,0,319.453
			S143.051,0.042,319.5,0.042z M617.7,317.196c0-164.582-133.445-297.989-298.072-297.989
			c-164.606,0-298.072,133.407-298.072,297.989c0,164.561,133.466,297.989,298.072,297.989
			C484.255,615.185,617.7,481.756,617.7,317.196z"/>
	</g>
	
		<circle id="leg_15_" display="inline" fill="#FFFFFF" stroke="#000000" stroke-miterlimit="10" cx="108.763" cy="266.159" r="63.767"/>
	
		<circle id="leg_14_" display="inline" fill="#FFFFFF" stroke="#000000" stroke-miterlimit="10" cx="345.06" cy="517.632" r="66.03"/>
	
		<circle id="leg_13_" display="inline" fill="#FFFFFF" stroke="#000000" stroke-miterlimit="10" cx="561.477" cy="343.105" r="32.083"/>
	
		<circle id="leg_12_" display="inline" fill="#FFFFFF" stroke="#000000" stroke-miterlimit="10" cx="287.284" cy="93.229" r="31.151"/>
	
		<circle id="tail_3_" display="inline" fill="#FFFFFF" stroke="#000000" stroke-miterlimit="10" cx="505.742" cy="168.445" r="43.798"/>
	
		<ellipse id="green" display="inline" fill="#A0BF3D" stroke="#000000" stroke-width="0.5" stroke-miterlimit="10" cx="333.522" cy="286.172" rx="215.663" ry="194.54"/>
	
		<circle id="head_3_" display="inline" fill="#FFFFFF" stroke="#000000" stroke-miterlimit="10" cx="171.731" cy="382.998" r="114.754"/>
</g>
<g id="guides" display="none">
</g>
</svg>
